# xmcd CD database file
#
# Track frame offsets:
#	150
#	28195
#	49317
#	78042
#	109032
#	137802
#	159890
#	196055
#	225500
#	247005
#
# Disc length: 3496 seconds
#
# Revision: 0
# Processed by: cddbd v1.5PL3 Copyright (c) Steve Scherf et al.
# Submitted via: CDex 1.51
#
DISCID=760da60a
DTITLE=Fred Hersch Trio +2 - The Fred Hersch Trio +2
DYEAR=2004
DGENRE=Jazz
TTITLE0=A Riddle Song
TTITLE1=And I Love Her
TTITLE2=Miss B.
TTITLE3=Black Dog Pays a Visit
TTITLE4=A Lark
TTITLE5=Down Home
TTITLE6=Rain Waltz
TTITLE7=Marshall's Plan
TTITLE8=Lee's Dream
TTITLE9=The Chase
EXTD=YEAR: 2004
EXTT0=
EXTT1=
EXTT2=
EXTT3=
EXTT4=
EXTT5=
EXTT6=
EXTT7=
EXTT8=
EXTT9=
PLAYORDER=
